<svg xmlns="http://www.w3.org/2000/svg" viewBox="0 0 377.9 187.04">
  <path d="M0 35.48h3.63C4.52 41.71 7.94 47 18.15 47c7.85 0 12.74-4.47 12.74-10.56 0-6.85-3.29-9.25-13.22-10.76C7 24.11 1.92 20.48 1.92 12.74 1.92 5.2 8.08 0 17.26 0s14.66 4.52 15.68 12.26h-3.35c-1.17-6-5-9.18-12.33-9.18-7.54 0-11.85 3.49-11.85 9.45 0 5.41 2.67 8.29 12.88 9.8 11 1.64 16.23 4.72 16.23 13.9 0 7.67-6.44 13.84-16.37 13.84C6.1 50.07 1 43.49 0 35.48zM52.8 46.44L38.63 13.7h3.9l12.26 28.56L66.23 13.7h3.7L50.06 62H46.3zM76.64 13.7h3.63v7.53a12.85 12.85 0 0112.12-8v3.42c-6.92.28-12.12 3.5-12.12 13v19.87h-3.63zM99.1 3.42a2.58 2.58 0 012.6-2.53 2.53 2.53 0 012.54 2.53A2.55 2.55 0 01101.7 6a2.6 2.6 0 01-2.6-2.58zm.82 10.28h3.63v35.82h-3.63zM111.63 39.86c0-8.29 8-10.89 16.78-10.89h7.47v-3.15c0-6.71-2.74-9.59-9-9.59-5.41 0-9.25 2.33-10.07 7.6h-3.56c.82-7.53 7-10.68 13.76-10.68 7.47 0 12.54 3.56 12.54 12.67v23.7h-3.63V44c-2.26 3.49-6.1 6-12.13 6-7.09.07-12.16-3.36-12.16-10.14zm24.25-1.92v-6.3h-7.33c-7.47 0-13.29 1.78-13.29 8.22 0 4.59 2.88 7.26 8.77 7.26 6.57 0 11.85-3.77 11.85-9.18zM149.71 13.7h3.63v7c1.64-3.9 6.3-7.53 12.67-7.53 7.6 0 12.74 4.11 12.74 14.31v22.04h-3.63V27.26c0-7.6-3.56-11-9.93-11-6 0-11.85 4-11.85 11.51v21.75h-3.63zM206.55.55h5.34l17.39 42.19L246.68.55H252v49h-3.69V5.2l-18.5 44.32h-1.23L210 5.2v44.32h-3.49zM263.25 36.37V13.7h3.63v22.46c0 7.6 3.56 10.75 9.8 10.75 5.82 0 11.71-3.9 11.71-11.43V13.7H292v35.82h-3.63v-6.85c-1.65 3.9-6.23 7.4-12.53 7.4-7.38 0-12.59-3.84-12.59-13.7zM299.55 38.83H303c.62 4.87 3.63 8.22 10.27 8.22 6 0 9.11-2.74 9.11-7 0-4.59-2.67-6-9.38-7.26-8.77-1.58-12.33-3.84-12.33-10s5.69-9.59 11.78-9.59c6.44 0 11.51 2.67 12.47 9.73h-3.49c-.89-4.59-3.84-6.65-9.05-6.65-5 0-8.35 2.54-8.35 6.37 0 4.11 2.47 5.62 9.79 6.92 7.67 1.37 12.06 3.22 12.06 10.2 0 6-4.45 10.41-12.61 10.41-8.38-.05-13.27-4.5-13.72-11.35zM333 3.42a2.58 2.58 0 012.6-2.53 2.53 2.53 0 012.54 2.53 2.55 2.55 0 01-2.5 2.58A2.6 2.6 0 01333 3.42zm.82 10.28h3.63v35.82h-3.63zM345.5 32v-.54c0-11 7.67-18.29 17.13-18.29 7.25 0 14 3.84 14.93 11.92H374c-.89-6-5.75-8.84-11.36-8.84-7.47 0-13.36 5.76-13.36 15.21V32c0 9.46 5.82 15 13.36 15 5.95 0 11-3.42 11.91-9.86h3.36c-1 7.67-7.12 13-15.27 13C353 50.07 345.5 42.87 345.5 32zM3.42 69H16.3C25.89 69 33 72.87 33 82.73V83c0 10.06-7 14-16.57 14H7.12v21h-3.7zm13.22 25c8 0 12.6-3.35 12.6-11v-.28c0-7.94-5-10.61-12.67-10.61H7.12V94zM41.61 82.18h3.63v7.54a12.85 12.85 0 0112.12-8v3.42c-6.91.27-12.12 3.49-12.12 13V118h-3.63zM61.31 100.47v-.55c0-10.82 6.85-18.28 16.44-18.28 8.63 0 15.68 5.61 15.68 17.46v1.37H65.08c.14 9.52 4.72 15 13.22 15 6 0 10-2.47 11.23-7.46h3.63c-1.51 6.84-7.19 10.54-14.86 10.54-10.3 0-16.99-7.33-16.99-18.08zm28.36-3c-.35-8.7-4.93-12.74-11.92-12.74S65.9 89.65 65.22 97.46zM99.29 107.32h3.5c.61 4.86 3.63 8.22 10.27 8.22 6 0 9.11-2.74 9.11-7.06 0-4.58-2.67-6-9.38-7.26-8.77-1.57-12.33-3.83-12.33-10s5.68-9.59 11.78-9.59c6.44 0 11.51 2.67 12.46 9.72h-3.49c-.89-4.59-3.83-6.64-9-6.64-5 0-8.35 2.53-8.35 6.37 0 4.11 2.46 5.61 9.79 6.92 7.67 1.37 12 3.21 12 10.2 0 6-4.45 10.41-12.6 10.41-8.41.01-13.28-4.44-13.76-11.29zM131.39 100.47v-.55c0-10.82 6.85-18.28 16.44-18.28 8.63 0 15.68 5.61 15.68 17.46v1.37h-28.35c.13 9.52 4.72 15 13.22 15 6 0 10-2.47 11.23-7.46h3.63c-1.51 6.84-7.19 10.54-14.86 10.54-10.38 0-16.99-7.33-16.99-18.08zm28.36-3c-.35-8.7-4.94-12.74-11.92-12.74S136 89.65 135.29 97.46zM172.05 82.18h3.63v7.54c2-4.32 5.54-7.81 12.12-8v3.42c-6.92.27-12.12 3.49-12.12 13V118h-3.63zM192.36 82.18h4l12.19 32.19 12.12-32.19h3.7L210.85 118h-4.72zM228.49 108.35c0-8.29 7.95-10.89 16.78-10.89h7.47v-3.15c0-6.71-2.74-9.59-9-9.59-5.41 0-9.25 2.33-10.07 7.6h-3.56c.82-7.53 7-10.68 13.77-10.68 7.46 0 12.53 3.56 12.53 12.67V118h-3.63v-5.47c-2.26 3.49-6.1 6-12.12 6-7.1.02-12.17-3.4-12.17-10.18zm24.25-1.92v-6.3h-7.33c-7.47 0-13.29 1.78-13.29 8.22 0 4.59 2.88 7.26 8.77 7.26 6.58 0 11.85-3.77 11.85-9.18zM268.81 109.37v-24.1h-5.28v-3.09h5.28V74h3.63v8.15h9.38v3.09h-9.38v23.86c0 4.32 2.05 6.3 5.34 6.3a13.82 13.82 0 004.52-.75v3.08a13.35 13.35 0 01-4.73.75c-5.68 0-8.76-3.35-8.76-9.11zM289.94 71.91a2.59 2.59 0 012.61-2.53 2.57 2.57 0 010 5.13 2.6 2.6 0 01-2.61-2.6zm.82 10.27h3.63V118h-3.63zM303.14 100.4v-.55c0-10.75 7.74-18.21 17.32-18.21s17.26 7.26 17.26 18.15v.54c0 10.83-7.67 18.22-17.32 18.22s-17.26-7.55-17.26-18.15zm30.82 0v-.55c0-9.45-5.89-15.13-13.5-15.13s-13.56 5.82-13.56 15.13v.55c0 9.18 5.76 15.07 13.56 15.07S334 109.65 334 100.4zM346.32 82.18H350v7c1.65-3.9 6.31-7.53 12.68-7.53 7.6 0 12.73 4.11 12.73 14.31v22h-3.63V95.75c0-7.61-3.56-11-9.93-11-6 0-11.85 4-11.85 11.5V118h-3.63zM136.08 137.52h3.7v49h-3.7zM151.42 150.67h3.63v7c1.64-3.91 6.3-7.54 12.67-7.54 7.6 0 12.74 4.11 12.74 14.32v22.05h-3.63v-22.27c0-7.6-3.56-11-9.93-11-6 0-11.85 4-11.85 11.51v21.71h-3.63zM190 140.4a2.59 2.59 0 012.6-2.54 2.57 2.57 0 010 5.14 2.59 2.59 0 01-2.6-2.6zm.82 10.27h3.63v35.82h-3.65zM206.48 177.86v-24.11h-5.27v-3.08h5.27v-8.15h3.63v8.15h9.38v3.08h-9.38v23.84c0 4.31 2 6.3 5.34 6.3a13.82 13.82 0 004.52-.75v3.08a13.25 13.25 0 01-4.72.75c-5.69.03-8.77-3.36-8.77-9.11zM226.89 140.4a2.59 2.59 0 012.6-2.54 2.57 2.57 0 010 5.14 2.59 2.59 0 01-2.6-2.6zm.82 10.27h3.63v35.82h-3.63zM239.42 176.83c0-8.28 8-10.89 16.78-10.89h7.47v-3.15c0-6.71-2.74-9.58-9-9.58-5.42 0-9.25 2.32-10.07 7.6H241c.82-7.54 7-10.69 13.76-10.69 7.47 0 12.54 3.56 12.54 12.67v23.7h-3.63V181c-2.26 3.49-6.1 6-12.13 6-7.05 0-12.12-3.39-12.12-10.17zm24.25-1.91v-6.3h-7.33c-7.47 0-13.29 1.78-13.29 8.21 0 4.59 2.88 7.26 8.77 7.26 6.57 0 11.85-3.76 11.85-9.17zM279 177.86v-24.11h-5.27v-3.08H279v-8.15h3.63v8.15H292v3.08h-9.39v23.84c0 4.31 2.06 6.3 5.35 6.3a13.87 13.87 0 004.52-.75v3.08a13.35 13.35 0 01-4.73.75c-5.66.03-8.75-3.36-8.75-9.11zM299.41 140.4a2.6 2.6 0 012.61-2.54 2.57 2.57 0 010 5.14 2.6 2.6 0 01-2.61-2.6zm.83 10.27h3.63v35.82h-3.63zM310.64 150.67h4l12.19 32.19 12.12-32.19h3.7l-13.49 35.82h-4.73zM345.64 169v-.55c0-10.82 6.85-18.29 16.44-18.29 8.63 0 15.68 5.62 15.68 17.47V169h-28.35c.14 9.52 4.72 15 13.22 15 6 0 10-2.47 11.23-7.47h3.63C376 183.34 370.3 187 362.63 187c-10.34 0-16.99-7.29-16.99-18zm28.36-3c-.35-8.69-4.93-12.73-11.92-12.73s-11.85 4.93-12.53 12.73z"/>
</svg>
