<svg xmlns="http://www.w3.org/2000/svg" viewBox="0 0 102.27 191.93">
  <path d="M81.43 63c0-17.65-1.64-28.43-5.86-38.43a57.7 57.7 0 01-4-18.76L71.15 0l-3.27 4.81a70 70 0 01-6.18 7.45c-5.56 6.11-11.85 13-11.86 24.21v.1c.36 6.91 4.62 15.14 11.68 22.59s15.92 16.77 15.92 33.15v47.89a35.86 35.86 0 00-6.25-8.57V92.32c0-14.59-8.18-22-15.39-28.48-7-6.34-13.09-11.82-11.57-23l.58-4.26-3.64 2.3c-8.74 5.54-15.31 16-16.35 26.06-.81 7.74 1.56 14.55 6.8 19.62 3.56 3.76 8.91 6.9 14.59 10.23 10.31 6 21 12.31 21 22.4v5.26a35.58 35.58 0 10-55.5 42.71 35.42 35.42 0 0069.75-8.69V92.31c0-1 0-2-.1-3zm-4 10.84c-3.52-7.47-8.71-12.94-13-17.43-6.4-6.74-10.25-14-10.59-20 0-9.6 5.27-15.36 10.84-21.49 1.11-1.22 2.24-2.46 3.34-3.75a56.53 56.53 0 003.87 14.94c4 9.46 5.54 19.8 5.54 36.87zm-29.2 17.55c-5.42-3.18-10.54-6.18-13.77-9.59a19.42 19.42 0 01-5.67-16.4C29.58 57.83 33.93 50 40 44.77c.22 10.39 6.77 16.3 13.13 22C60 73.05 67.19 79.51 67.19 92.32v13.51c-4.48-5.95-12.02-10.37-18.96-14.44zM14.6 156.52a31.39 31.39 0 0152-23.71 31.57 31.57 0 01-31 37.65A31.4 31.4 0 0115.29 163a31.15 31.15 0 01-.69-6.48zM4 138.86a31.59 31.59 0 0160.61-12.47 35.4 35.4 0 00-54 30.13c0 .57 0 1.13.05 1.69A31.42 31.42 0 014 138.86zm42 49.07a31.46 31.46 0 01-28.63-18.49 35.57 35.57 0 0053.78-30v-1.69A31.4 31.4 0 0146 187.93zM95 139.65a7.28 7.28 0 10-7.3-7.28 7.29 7.29 0 007.3 7.28zm0-10.56a3.28 3.28 0 11-3.3 3.28 3.29 3.29 0 013.3-3.28zM95 153.85a7.28 7.28 0 107.29 7.28 7.3 7.3 0 00-7.29-7.28zm0 10.56a3.28 3.28 0 113.29-3.28 3.29 3.29 0 01-3.29 3.28z"/>
</svg>
