<svg version="1.1" id="Layer_1" xmlns="http://www.w3.org/2000/svg" x="0" y="0" viewBox="0 0 318.88 173.09" xml:space="preserve"><style>.st0{fill:#0ae00a}</style><path class="st0" d="M7.06 41.3h2.91c.71 4.99 3.46 9.27 11.64 9.27 6.26 0 10.21-3.57 10.21-8.46 0-5.49-2.64-7.41-10.6-8.62C12.66 32.18 8.6 29.27 8.6 23.07c0-6.04 4.94-10.18 12.29-10.18s11.75 3.59 12.58 9.79h-2.69c-.93-4.81-4.01-7.35-9.88-7.35-6.04 0-9.49 2.8-9.49 7.57 0 4.34 2.14 6.64 10.32 7.85 8.83 1.31 13 3.78 13 11.14 0 6.16-5.16 11.07-13.12 11.07-9.67.01-13.73-5.24-14.55-11.66zM49.38 50.08L38.02 23.84h3.13l9.83 22.89 9.17-22.89h2.97L47.19 62.58h-3.02l5.21-12.5zM68.48 23.84h2.91v6.04c1.61-3.93 5.46-6.48 9.71-6.41v2.75c-5.55.22-9.71 2.8-9.71 10.42v15.91h-2.91V23.84zM86.48 15.61a2.09 2.09 0 012.08-2.04c1.14 0 2.06.92 2.06 2.06 0 1.14-.92 2.06-2.06 2.06-1.14 0-2.08-.93-2.08-2.08zm.66 8.23h2.91v28.71h-2.91V23.84zM96.53 44.81c0-6.64 6.37-8.73 13.46-8.73h5.98v-2.52c0-5.38-2.2-7.68-7.21-7.68-4.34 0-7.41 1.86-8.07 6.09h-2.85c.66-6.04 5.61-8.57 11.04-8.57 5.98 0 10.04 2.86 10.04 10.15v19h-2.91v-4.39c-1.81 2.81-4.89 4.81-9.71 4.81-5.71 0-9.77-2.72-9.77-8.16zm19.43-1.53v-5.05h-5.87c-5.98 0-10.64 1.43-10.64 6.58 0 3.68 2.3 5.82 7.02 5.82 5.27-.01 9.49-3.02 9.49-7.35zM127.05 23.84h2.91v5.61c1.32-3.13 5.05-6.04 10.15-6.04 6.09 0 10.21 3.29 10.21 11.48v17.66h-2.91V34.71c0-6.09-2.85-8.82-7.96-8.82-4.81 0-9.5 3.21-9.5 9.23v17.43h-2.91l.01-28.71zM172.6 13.3h4.28l13.95 33.82 13.94-33.82H209v39.27h-2.97V17.03l-14.82 35.51h-.99L175.4 17.03v35.51h-2.8V13.3zM218.06 42.01V23.84h2.91v18.01c0 6.09 2.85 8.62 7.85 8.62 4.66 0 9.41-3.11 9.41-9.17V23.84h2.91v28.71h-2.91v-5.49c-1.31 3.13-4.99 5.93-10.04 5.93-6-.02-10.13-3.08-10.13-10.98zM247.14 43.99h2.81c.49 3.9 2.91 6.59 8.23 6.59 4.81 0 7.3-2.2 7.3-5.66 0-3.68-2.14-4.81-7.53-5.82-7.02-1.26-9.87-3.07-9.87-8.01s4.55-7.69 9.44-7.69c5.16 0 9.22 2.14 9.99 7.8h-2.8c-.71-3.68-3.08-5.32-7.21-5.32-4.01 0-6.7 2.03-6.7 5.11 0 3.29 1.98 4.5 7.85 5.54 6.15 1.1 9.66 2.58 9.66 8.18 0 4.81-3.57 8.34-10.1 8.34-6.79 0-10.68-3.57-11.07-9.06zM273.98 15.61c.03-1.14.96-2.04 2.09-2.04 1.14 0 2.06.92 2.06 2.06 0 1.14-.92 2.06-2.06 2.06-1.14.01-2.08-.92-2.09-2.08zm.66 8.23h2.91v28.71h-2.91V23.84zM283.98 38.54v-.48c0-8.82 6.15-14.66 13.72-14.66 5.82 0 11.22 3.08 11.97 9.55h-2.85c-.71-4.81-4.62-7.08-9.11-7.08-5.99 0-10.71 4.61-10.71 12.18v.48c0 7.57 4.66 12.02 10.71 12.02 4.81 0 8.82-2.75 9.55-7.91h2.69c-.8 6.16-5.71 10.42-12.24 10.42-7.75-.09-13.73-5.83-13.73-14.52zM9.8 68.19h10.32c7.69 0 13.4 3.07 13.4 10.98v.24c0 8.07-5.66 11.22-13.29 11.22h-7.46v16.83H9.8V68.19zm10.59 20.04c6.36 0 10.1-2.69 10.1-8.82v-.21c0-6.41-4.01-8.51-10.15-8.51h-7.57v17.54h7.62zM40.41 78.73h2.91v6.04a10.29 10.29 0 019.71-6.41v2.74c-5.55.22-9.71 2.81-9.71 10.42v15.95h-2.91V78.73zM56.2 93.39v-.44c0-8.67 5.48-14.66 13.17-14.66 6.92 0 12.58 4.5 12.58 14v1.1H59.22c.11 7.62 3.79 12.02 10.6 12.02 4.81 0 8.01-1.97 9-5.98h2.91c-1.2 5.49-5.76 8.46-11.91 8.46-8.3-.01-13.62-5.88-13.62-14.5zm22.73-2.4c-.27-6.97-3.95-10.21-9.55-10.21-5.6 0-9.5 3.95-10.04 10.21h19.59zM86.64 98.87h2.8c.5 3.9 2.91 6.59 8.23 6.59 4.81 0 7.3-2.2 7.3-5.61 0-3.68-2.14-4.81-7.52-5.82-7.03-1.27-9.88-3.08-9.88-8.01 0-4.94 4.56-7.69 9.44-7.69 5.16 0 9.23 2.14 9.99 7.8h-2.81c-.71-3.68-3.07-5.33-7.21-5.33-4.01 0-6.69 2.04-6.69 5.11 0 3.29 1.97 4.5 7.85 5.55 6.15 1.1 9.67 2.58 9.67 8.18 0 4.81-3.57 8.34-10.11 8.34-6.78-.05-10.67-3.61-11.06-9.11zM112.39 93.39v-.44c0-8.67 5.49-14.66 13.18-14.66 6.92 0 12.58 4.5 12.58 14v1.1H115.4c.11 7.62 3.79 12.02 10.6 12.02 4.81 0 8.01-1.97 9-5.98h2.91c-1.21 5.49-5.76 8.46-11.91 8.46-8.31-.01-13.61-5.88-13.61-14.5zm22.73-2.4c-.27-6.97-3.95-10.21-9.55-10.21-5.6 0-9.5 3.95-10.04 10.21h19.59zM144.95 78.73h2.91v6.04a10.3 10.3 0 019.71-6.41v2.74c-5.55.22-9.71 2.81-9.71 10.42v15.95h-2.91V78.73zM161.23 78.73h3.21l9.78 25.8 9.71-25.8h2.97l-10.84 28.73h-3.78l-11.05-28.73zM190.2 99.7c0-6.64 6.36-8.73 13.45-8.73h5.98v-2.52c0-5.38-2.2-7.69-7.21-7.69-4.34 0-7.41 1.87-8.07 6.09h-2.85c.66-6.04 5.61-8.56 11.04-8.56 5.98 0 10.04 2.85 10.04 10.15v19.02h-2.91v-4.39c-1.81 2.8-4.88 4.81-9.71 4.81-5.71 0-9.76-2.75-9.76-8.18zm19.42-1.54v-5.05h-5.87c-5.98 0-10.64 1.43-10.64 6.59 0 3.68 2.3 5.82 7.02 5.82 5.27 0 9.49-3.02 9.49-7.36zM222.5 100.53V81.2h-4.22v-2.47h4.22V72.2h2.89v6.53h7.52v2.47h-7.52v19.1c0 3.46 1.64 5.06 4.28 5.06 1.23 0 2.46-.21 3.62-.61v2.47c-1.21.44-2.5.64-3.78.61-4.54 0-7.01-2.7-7.01-7.3zM239.45 70.5c.02-1.13.95-2.04 2.08-2.04 1.14 0 2.06.92 2.06 2.06 0 1.14-.92 2.06-2.06 2.06-1.15.01-2.08-.93-2.08-2.08zm.66 8.23h2.93v28.73h-2.91l-.02-28.73zM250.02 93.34v-.44c0-8.62 6.2-14.6 13.89-14.6s13.83 5.82 13.83 14.55v.44c0 8.67-6.15 14.6-13.89 14.6-7.74-.01-13.83-6.11-13.83-14.55zm24.7 0v-.44c0-7.57-4.72-12.13-10.81-12.13s-10.87 4.66-10.87 12.13v.44c0 7.35 4.61 12.07 10.87 12.07s10.81-4.67 10.81-12.07zM284.64 78.73h2.91v5.61c1.31-3.13 5.05-6.04 10.15-6.04 6.09 0 10.21 3.29 10.21 11.47v17.69H305V89.6c0-6.09-2.85-8.82-7.96-8.82-4.81 0-9.5 3.21-9.5 9.23v17.46h-2.91V78.73zM9.92 122.69h2.97v39.27H9.92v-39.27zM22.22 133.23h2.91v5.61c1.31-3.13 5.05-6.04 10.15-6.04 6.09 0 10.21 3.29 10.21 11.47v17.68h-2.91V144.1c0-6.1-2.85-8.82-7.96-8.82-4.81 0-9.5 3.21-9.5 9.22v17.41h-2.91v-28.68zM53.12 124.99c.02-1.13.95-2.04 2.08-2.03a2.058 2.058 0 010 4.11 2.07 2.07 0 01-2.08-2.07v-.01zm.66 8.24h2.9v28.71h-2.91l.01-28.71zM66.35 155.02V135.7h-4.22v-2.47h4.22v-6.53h2.91v6.53h7.53v2.47h-7.53v19.1c0 3.46 1.65 5.05 4.28 5.05 1.24 0 2.46-.2 3.63-.6v2.47c-1.22.43-2.5.63-3.79.6-4.55-.01-7.03-2.69-7.03-7.3zM82.71 124.99c.03-1.13.95-2.03 2.08-2.03a2.058 2.058 0 010 4.11c-1.15 0-2.08-.93-2.08-2.08zm.66 8.24h2.91v28.71h-2.91v-28.71zM92.75 154.19c0-6.64 6.37-8.73 13.45-8.73h5.99v-2.52c0-5.38-2.2-7.69-7.21-7.69-4.34 0-7.41 1.87-8.07 6.09h-2.85c.66-6.04 5.61-8.56 11.04-8.56 5.98 0 10.04 2.85 10.04 10.15v19h-2.91v-4.38c-1.81 2.8-4.89 4.81-9.71 4.81-5.71.01-9.77-2.73-9.77-8.17zm19.44-1.53v-5.05h-5.87c-5.98 0-10.65 1.43-10.65 6.59 0 3.68 2.31 5.82 7.03 5.82 5.28-.01 9.49-3.03 9.49-7.36zM124.48 155.02V135.7h-4.23v-2.47h4.23v-6.53h2.91v6.53h7.52v2.47h-7.52v19.1c0 3.46 1.6 5.05 4.28 5.05 1.23 0 2.46-.2 3.62-.6v2.47c-1.22.43-2.5.63-3.79.6-4.55-.01-7.02-2.69-7.02-7.3zM140.84 124.99c.02-1.13.95-2.04 2.08-2.03a2.058 2.058 0 010 4.11 2.07 2.07 0 01-2.08-2.07v-.01zm.66 8.24h2.91v28.71h-2.91v-28.71zM149.84 133.23h3.21l9.77 25.8 9.71-25.8h2.97l-10.81 28.71h-3.81l-11.04-28.71zM177.89 147.88v-.44c0-8.67 5.49-14.65 13.18-14.65 6.92 0 12.58 4.5 12.58 13.99v1.1h-22.72c.11 7.63 3.79 12.02 10.6 12.02 4.81 0 8.01-1.97 9-5.98h2.91c-1.2 5.48-5.76 8.45-11.91 8.45-8.31 0-13.64-5.88-13.64-14.49zm22.73-2.41c-.27-6.97-3.95-10.21-9.55-10.21-5.6 0-9.5 3.95-10.04 10.21h19.59z"/><path d="M6.98 41.3h2.91c.71 4.99 3.46 9.27 11.65 9.27 6.26 0 10.21-3.57 10.21-8.46 0-5.49-2.64-7.41-10.6-8.62-8.56-1.27-12.63-4.18-12.63-10.39 0-6.08 4.94-10.21 12.29-10.21s11.76 3.62 12.58 9.83H30.7c-.94-4.81-4.01-7.36-9.89-7.36-6.04 0-9.5 2.81-9.5 7.58 0 4.34 2.14 6.64 10.32 7.85 8.84 1.28 13 3.74 13 11.11 0 6.16-5.15 11.07-13.1 11.07-9.66 0-13.72-5.25-14.55-11.67zM49.32 50.08L37.95 23.83h3.1l9.86 22.9 9.17-22.9h2.97L47.12 62.58H44.1l5.22-12.5zM68.43 23.83h2.91v6.04c1.61-3.94 5.47-6.48 9.72-6.41v2.73c-5.55.22-9.72 2.8-9.72 10.42v15.93h-2.91V23.83zM86.44 15.6a2.09 2.09 0 012.08-2.04c1.14 0 2.06.92 2.06 2.06 0 1.14-.92 2.06-2.06 2.06-1.15 0-2.08-.93-2.08-2.08zm.65 8.23H90v28.72h-2.91V23.83zM96.49 44.81c0-6.64 6.36-8.73 13.45-8.73h5.99v-2.52c0-5.39-2.2-7.69-7.21-7.69-4.34 0-7.41 1.87-8.07 6.09h-2.86c.66-6.04 5.61-8.57 11.04-8.57 5.98 0 9.99 2.86 9.99 10.16v19h-2.91v-4.39c-1.81 2.81-4.89 4.81-9.72 4.81-5.64 0-9.7-2.72-9.7-8.16zm19.43-1.53v-5.06h-5.87c-5.99 0-10.65 1.43-10.65 6.59 0 3.68 2.31 5.83 7.03 5.83 5.27-.01 9.49-3.03 9.49-7.36zM127.01 23.83h2.91v5.61c1.31-3.13 5.05-6.04 10.15-6.04 6.1 0 10.22 3.29 10.22 11.48v17.67h-2.91V34.71c0-6.1-2.86-8.82-7.97-8.82-4.81 0-9.5 3.21-9.5 9.23v17.43H127l.01-28.72zM172.58 13.29h4.29l13.95 33.82 13.95-33.82H209v39.27h-2.97V17.03L191.2 52.55h-.99l-14.82-35.52v35.52h-2.81V13.29zM218.05 42.01V23.83h2.91v18.01c0 6.1 2.85 8.62 7.85 8.62 4.66 0 9.39-3.13 9.39-9.17V23.83h2.91v28.72h-2.89v-5.49c-1.31 3.13-4.99 5.93-10.05 5.93-5.98-.02-10.12-3.07-10.12-10.98zM247.15 43.99h2.8c.5 3.9 2.91 6.59 8.24 6.59 4.81 0 7.3-2.2 7.3-5.66 0-3.68-2.14-4.81-7.53-5.82-7.03-1.27-9.88-3.08-9.88-8.01s4.56-7.69 9.44-7.69c5.17 0 9.23 2.15 9.99 7.8h-2.8c-.71-3.68-3.08-5.32-7.21-5.32-4.01 0-6.7 2.03-6.7 5.11 0 3.29 1.97 4.5 7.85 5.55 6.16 1.1 9.67 2.58 9.67 8.18 0 4.81-3.57 8.34-10.1 8.34-6.79-.01-10.68-3.58-11.07-9.07zM274 15.6c.02-1.13.95-2.04 2.08-2.04 1.14 0 2.06.92 2.06 2.06 0 1.14-.92 2.06-2.06 2.06-1.15 0-2.08-.93-2.08-2.08zm.66 8.23h2.91v28.72h-2.91V23.83zM283.99 38.49v-.43c0-8.82 6.16-14.67 13.73-14.67 5.82 0 11.22 3.08 11.97 9.55h-2.85c-.72-4.81-4.62-7.08-9.12-7.08-5.99 0-10.71 4.61-10.71 12.19v.43c0 7.58 4.67 12.02 10.71 12.02 4.81 0 8.82-2.75 9.55-7.91h2.69c-.8 6.16-5.71 10.42-12.25 10.42-7.74-.04-13.72-5.78-13.72-14.52zM9.73 68.19h10.32c7.69 0 13.4 3.07 13.4 10.98v.24c0 8.07-5.65 11.22-13.29 11.22h-7.47v16.83H9.73V68.19zm10.6 20.04c6.41 0 10.1-2.69 10.1-8.82v-.21c0-6.37-4.01-8.51-10.15-8.51H12.7v17.54h7.63zM40.35 78.74h2.91v6.04c1.61-3.93 5.46-6.48 9.71-6.41v2.75c-5.55.22-9.71 2.8-9.71 10.42v15.93h-2.91V78.74zM56.14 93.4v-.43c0-8.68 5.49-14.67 13.18-14.67 6.92 0 12.58 4.5 12.58 14v1.1H59.16c.11 7.64 3.79 12.02 10.6 12.02 4.81 0 8.01-1.98 9.01-5.99h2.91c-1.21 5.49-5.76 8.46-11.92 8.46-8.29.01-13.62-5.87-13.62-14.49zM78.88 91c-.28-6.97-3.96-10.21-9.56-10.21-5.6 0-9.5 3.95-10.04 10.21h19.6zM86.6 98.9h2.8c.5 3.9 2.91 6.59 8.24 6.59 4.81 0 7.3-2.2 7.3-5.66 0-3.68-2.14-4.81-7.53-5.82-7.03-1.27-9.88-3.08-9.88-8.01 0-4.94 4.56-7.69 9.45-7.69 5.16 0 9.23 2.15 9.99 7.8h-2.8c-.71-3.68-3.08-5.32-7.21-5.32-4.01 0-6.7 2.03-6.7 5.11 0 3.29 1.98 4.5 7.85 5.55 6.15 1.1 9.66 2.58 9.66 8.18 0 4.81-3.57 8.34-10.1 8.34-6.79-.01-10.69-3.58-11.07-9.07zM112.32 93.4v-.43c0-8.68 5.49-14.67 13.18-14.67 6.92 0 12.58 4.5 12.58 14v1.1h-22.74c.11 7.64 3.79 12.02 10.6 12.02 4.81 0 8.01-1.98 9.01-5.99h2.91c-1.21 5.49-5.76 8.46-11.92 8.46-8.29.01-13.62-5.87-13.62-14.49zm22.74-2.4c-.28-6.97-3.96-10.21-9.55-10.21S116 84.74 115.46 91h19.6zM144.92 78.74h2.91v6.04c1.61-3.94 5.47-6.48 9.72-6.41v2.75c-5.55.22-9.72 2.8-9.72 10.42v15.93h-2.91V78.74zM161.21 78.74h3.21l9.77 25.81 9.72-25.81h2.97l-10.84 28.73h-3.79l-11.04-28.73zM190.18 99.72c0-6.64 6.36-8.73 13.45-8.73h5.99v-2.52c0-5.39-2.2-7.69-7.21-7.69-4.34 0-7.41 1.87-8.07 6.09h-2.86c.66-6.04 5.61-8.57 11.04-8.57 5.99 0 10.05 2.86 10.05 10.16v19h-2.91v-4.39c-1.81 2.81-4.89 4.81-9.72 4.81-5.7.02-9.76-2.72-9.76-8.16zm19.44-1.54v-5.05h-5.86c-5.99 0-10.65 1.43-10.65 6.59 0 3.68 2.31 5.83 7.03 5.83 5.22-.01 9.48-3.03 9.48-7.37zM222.5 100.54V81.21h-4.22v-2.47h4.22V72.2h2.9v6.53h7.53v2.47h-7.53v19.12c0 3.45 1.65 5.05 4.29 5.05 1.23 0 2.46-.2 3.62-.6v2.47c-1.22.43-2.5.63-3.79.6-4.55 0-7.02-2.68-7.02-7.3zM239.45 70.5c.02-1.13.95-2.04 2.08-2.03 1.14 0 2.06.92 2.06 2.06 0 1.14-.92 2.06-2.06 2.06a2.08 2.08 0 01-2.08-2.09c0 .01 0 0 0 0zm.66 8.24h2.93v28.73h-2.91l-.02-28.73zM250.02 93.35v-.44c0-8.62 6.21-14.61 13.9-14.61s13.83 5.83 13.83 14.56v.44c0 8.67-6.15 14.6-13.89 14.6s-13.84-6.09-13.84-14.55zm24.71 0v-.44c0-7.58-4.72-12.13-10.81-12.13s-10.88 4.66-10.88 12.13v.44c0 7.36 4.62 12.08 10.88 12.08s10.81-4.67 10.81-12.08zM284.65 78.74h2.91v5.61c1.31-3.13 5.05-6.04 10.15-6.04 6.1 0 10.22 3.29 10.22 11.48v17.68h-2.92V89.62c0-6.1-2.85-8.82-7.96-8.82-4.81 0-9.5 3.21-9.5 9.23v17.44h-2.91V78.74zM9.88 122.71h2.97v39.27H9.88v-39.27zM22.22 133.25h2.91v5.61c1.31-3.13 5.05-6.04 10.15-6.04 6.1 0 10.22 3.29 10.22 11.48v17.67h-2.92v-17.84c0-6.1-2.85-8.82-7.96-8.82-4.81 0-9.5 3.21-9.5 9.23v17.43h-2.91v-28.72zM53.1 125.01c.02-1.13.95-2.04 2.08-2.03 1.14 0 2.06.92 2.06 2.06 0 1.14-.92 2.06-2.06 2.06a2.08 2.08 0 01-2.08-2.09c0 .01 0 0 0 0zm.66 8.24h2.93v28.72h-2.91l-.02-28.72zM66.3 155.05v-19.33h-4.23v-2.47h4.23v-6.53h2.91v6.53h7.52v2.47h-7.52v19.12c0 3.45 1.64 5.05 4.28 5.05 1.23 0 2.46-.2 3.62-.61v2.48c-1.21.43-2.5.63-3.78.6-4.53.01-7.03-2.7-7.03-7.31zM82.69 125.01c.03-1.13.96-2.04 2.09-2.03 1.14 0 2.06.92 2.06 2.06 0 1.14-.92 2.06-2.06 2.06a2.09 2.09 0 01-2.09-2.09zm.66 8.24h2.92v28.72h-2.92v-28.72zM92.75 154.23c0-6.64 6.37-8.73 13.45-8.73h5.99v-2.52c0-5.39-2.2-7.69-7.21-7.69-4.34 0-7.41 1.86-8.07 6.09h-2.86c.67-6.04 5.61-8.57 11.04-8.57 5.99 0 10.05 2.85 10.05 10.16v19h-2.91v-4.41c-1.81 2.8-4.89 4.81-9.72 4.81-5.7.04-9.76-2.71-9.76-8.14zm19.44-1.54v-5.05h-5.87c-5.99 0-10.65 1.43-10.65 6.59 0 3.68 2.31 5.82 7.03 5.82 5.28-.01 9.48-3.02 9.49-7.36zM124.47 155.05v-19.33h-4.22v-2.47h4.22v-6.53h2.92v6.53h7.52v2.47h-7.52v19.12c0 3.45 1.6 5.05 4.28 5.05 1.23 0 2.46-.2 3.62-.61v2.48c-1.22.43-2.5.63-3.79.6-4.55.01-7.03-2.7-7.03-7.31zM140.84 125.01c.03-1.13.95-2.03 2.08-2.03 1.14 0 2.06.92 2.06 2.06 0 1.14-.92 2.06-2.06 2.06-1.15 0-2.08-.94-2.08-2.09zm.66 8.24h2.91v28.72h-2.91v-28.72zM149.85 133.25h3.21l9.77 25.81 9.72-25.81h2.97l-10.82 28.72h-3.82l-11.03-28.72zM177.9 147.94v-.44c0-8.67 5.49-14.66 13.18-14.66 6.92 0 12.58 4.5 12.58 14v1.1h-22.75c.11 7.64 3.79 12.02 10.6 12.02 4.81 0 8.01-1.98 9.01-5.99h2.91c-1.21 5.49-5.76 8.46-11.92 8.46-8.28-.02-13.61-5.9-13.61-14.49zm22.74-2.4c-.28-6.97-3.96-10.21-9.55-10.21-5.59 0-9.51 3.95-10.05 10.21h19.6z"/></svg>
