<svg xmlns="http://www.w3.org/2000/svg" viewBox="0 0 394.53 428.5">
  <defs>
    <style>
      .cls-2,.cls-3{fill:#bf0d0d;fill-rule:evenodd}.cls-3{fill:#865400}
    </style>
  </defs>
  <circle cx="151.15" cy="277.35" r="151.15" transform="rotate(-45 151.144 277.354)" fill="#eed9b3"/>
  <path class="cls-2" d="M140.16 343.74a9.86 9.86 0 119.86-9.85 9.86 9.86 0 01-9.86 9.85zm-23.53 0a9.86 9.86 0 119.85-9.85 9.87 9.87 0 01-9.85 9.85zm213.89-122.08a9.86 9.86 0 119.86-9.86 9.88 9.88 0 01-9.86 9.86zm-23.53 0a9.86 9.86 0 119.85-9.86 9.88 9.88 0 01-9.84 9.86z"/>
  <path class="cls-3" d="M198.09 399.71a130.22 130.22 0 01-60.89 9.23C72 403.23 26.75 355.76 22.69 287.22c-.14-2.32 1.35-2.11 1.59-.29 7.37 55.38 45.52 94.9 114.9 99.4 16.93 1.62 31.75.32 45-3.26a114.23 114.23 0 0035.83-17c20-13.24 33.33-31.44 47-47.38 9.26-9.55 18-17.14 24.18-1.31 4.9 10.08 12.18 10.8 14 11.05 21.27.59 28.3-21.94 39.89-38.61-11.76 3.46-27.69 8-39 7.58-3.33.09-4-.36-2.89-5.09 4.63-21.15 24.71-57 43.82-60.9 6-1.28 14.09 1.7 11 7.17l-7 12.86c-.67.86-1.22.76-1.73.22-10-11.09-30.51 11.34-36 26.62l2.2-.21c25.68-2.81 53.67-13.18 78.95-19.8-4.23 7.85-5.93 13.9-8.26 20.28a85.16 85.16 0 00-12.64 4.21C346 294.27 341 329.61 323.05 344.83c-4.56 4.13-11.11 6.53-17.16 5.75-11.13-1.54-14.68-8.84-18.83-15.65-6.06-10.95-12.61-2.31-19 4-23.7 28.2-34.18 46.07-69.97 60.78z"/>
  <path class="cls-2" d="M280.29 249.12a9.86 9.86 0 119.86-9.86 9.88 9.88 0 01-9.86 9.86zM128.4 196.64a9.86 9.86 0 119.85-9.86 9.87 9.87 0 01-9.85 9.86zm72.51 25.02a9.86 9.86 0 119.85-9.86 9.88 9.88 0 01-9.85 9.86z"/>
  <path class="cls-3" d="M86.53 289.61c-8-.12-8-6-7.62-9.5 1.41-12.44-9.14-26.13-3.58-41.34-4.15 6.64-12.93 5.44-22.28 4.64-17.5-1.5-28.53 5.94-30.94 17.66-5.43 28.62 11.43 52.42-4.16 82.67C35.59 332.28 39 319 41.11 298.8c10.66 2.07 20.5 1 29.35-3.9 3 2.67 7.33 4.29 12.77 4.84h25.93c7.06 0 13.06.34 19.28-5.27 6.22 5.61 12.21 5.27 19.28 5.27h36.94a14.77 14.77 0 0113.25 8.12 77.64 77.64 0 005.92-8.12h21.28A10.86 10.86 0 00236 288.89V85.5c0-26.65-28.22-28.56-25.24-50.4-12.61 8-20.78 28.08-8.59 39.91 9.22 9.73 26.6 14.46 26.6 35.69V286a3.62 3.62 0 01-3.61 3.62h-16c10.05-27.63-17-37.7-10.64-54.41-15 11.34-19 16.43-20.39 25-1.09 16.71 15 19.27 17.14 32.28-4-3.42-10.11-2.89-13.34-2.89h-18.15c-7.93 0-14.49-1.09-20.41-6.51l12.52-11.62a14 14 0 004.12-9.92 14.84 14.84 0 00-3.34-9.2l-21.21-21.79c-4.51-4.62-6.08-6.23-7.05-11.31-1 5.08-2.55 6.69-7 11.31l-21.22 21.79a14.83 14.83 0 00-3.33 9.2 14 14 0 004.12 9.92l12.52 11.62c-5.93 5.42-12.48 6.51-20.42 6.51zm156.65 10.12V83.56c0-26.42-24.43-31.88-25.3-48.39 0-17.25 16.05-22.59 19.51-35.17-5.2 15.29 13 29.88 13 59.42v252c-.07 17.1-7.22 28.67-20.26 32.31 13-9.8 13-28.21 13-35.93v-8.08zM128.4 261.21a3.62 3.62 0 11-3.62 3.61 3.62 3.62 0 013.62-3.61zM49 268a3.53 3.53 0 11-3.53 3.53A3.53 3.53 0 0149 268z"/>
</svg>
