<svg xmlns="http://www.w3.org/2000/svg" viewBox="0 0 512 512"><rect width="512" height="512" rx="96" fill="#fff"/><path d="M315 178.61c0-41.38-3.85-66.62-13.74-90.05-7-16.57-8.75-33-9.47-44L290.9 31l-7.66 11.27c-4.17 6.13-9.39 11.87-14.48 17.46C255.74 74.05 241 90.27 241 116.46v.24c.85 16.19 10.83 35.47 27.38 52.92s37.27 39.29 37.27 77.68v112.22A83.3 83.3 0 00291 339.44v-92.1c0-34.2-19.16-51.49-36.06-66.75-16.46-14.86-30.68-27.7-27.12-53.76l1.36-10-8.51 5.39c-20.49 13-35.89 37.51-38.33 61.06-1.88 18.13 3.68 34.08 15.93 46 8.35 8.8 20.9 16.17 34.2 24 24.16 14.18 49.15 28.84 49.15 52.48v12.33a83.38 83.38 0 10-130 100.08A83 83 0 00315 397.76V247.3q0-3.59-.21-7zM305.54 204c-8.25-17.48-20.41-30.31-30.38-40.82-15-15.81-24-32.87-24.81-46.84.05-22.48 12.34-36 25.39-50.34 2.6-2.86 5.25-5.78 7.82-8.8a132.77 132.77 0 009.06 35c9.36 22.17 13 46.4 13 86.39zm-68.34 41.15c-12.7-7.45-24.7-14.49-32.27-22.46-13-12.59-14.38-27.85-13.28-38.43 1.84-17.76 12-36.16 26.25-48.34.51 24.32 15.86 38.18 30.75 51.63 16.21 14.63 33 29.76 33 59.79V279c-10.53-13.95-28.19-24.31-44.45-33.85zm-78.8 152.61a73.55 73.55 0 01121.83-55.56A74 74 0 01160 413.06a73.54 73.54 0 01-1.6-15.3zm-24.85-41.36a74 74 0 01142-29.23A82.94 82.94 0 00149 397.76c0 1.33 0 2.66.1 4a73.69 73.69 0 01-15.55-45.36zm98.46 115a73.7 73.7 0 01-67.07-43.4 83.34 83.34 0 00126-70.35v-3.95a73.58 73.58 0 01-59 117.63zM346.73 358.24a17.06 17.06 0 10-17.08-17.06 17.09 17.09 0 0017.08 17.06zm0-24.75a7.69 7.69 0 11-7.71 7.69 7.71 7.71 0 017.71-7.69zM346.73 391.51a17.07 17.07 0 1017.09 17.06 17.09 17.09 0 00-17.09-17.06zm0 24.75a7.69 7.69 0 117.72-7.69 7.71 7.71 0 01-7.72 7.69z"/></svg>
